<svg width="30" height="30" viewBox="0 0 30 30" fill="none" xmlns="http://www.w3.org/2000/svg">
<path d="M11 11.6406V11.0938C11 10.834 11.2078 10.625 11.4661 10.625H13.6415L13.824 10.2598C13.9017 10.0996 14.0629 10 14.2397 10H16.4597C16.6364 10 16.7976 10.0996 16.8773 10.2598L17.0598 10.625H19.2352C19.4935 10.625 19.7013 10.834 19.7013 11.0938V11.6406C19.7013 11.7695 19.5964 11.875 19.4682 11.875H11.2331C11.1049 11.875 11 11.7695 11 11.6406ZM19.0798 12.7344V19.0625C19.0798 19.5801 18.6622 20 18.1475 20H12.5538C12.0391 20 11.6215 19.5801 11.6215 19.0625V12.7344C11.6215 12.6055 11.7264 12.5 11.8546 12.5H18.8467C18.9749 12.5 19.0798 12.6055 19.0798 12.7344ZM13.7968 14.0625C13.7968 13.8906 13.657 13.75 13.4861 13.75C13.3152 13.75 13.1753 13.8906 13.1753 14.0625V18.4375C13.1753 18.6094 13.3152 18.75 13.4861 18.75C13.657 18.75 13.7968 18.6094 13.7968 18.4375V14.0625ZM15.6614 14.0625C15.6614 13.8906 15.5216 13.75 15.3506 13.75C15.1797 13.75 15.0399 13.8906 15.0399 14.0625V18.4375C15.0399 18.6094 15.1797 18.75 15.3506 18.75C15.5216 18.75 15.6614 18.6094 15.6614 18.4375V14.0625ZM17.526 14.0625C17.526 13.8906 17.3861 13.75 17.2152 13.75C17.0443 13.75 16.9045 13.8906 16.9045 14.0625V18.4375C16.9045 18.6094 17.0443 18.75 17.2152 18.75C17.3861 18.75 17.526 18.6094 17.526 18.4375V14.0625Z" fill="white"/>
</svg>
