<svg width="30" height="30" viewBox="0 0 30 30" fill="none" xmlns="http://www.w3.org/2000/svg">
<path d="M15.8334 11.998L18.002 14.1666C18.0934 14.258 18.0934 14.407 18.002 14.4984L12.7511 19.7493L10.5199 19.997C10.2218 20.0306 9.96936 19.7782 10.003 19.4801L10.2507 17.2489L15.5016 11.998C15.593 11.9066 15.742 11.9066 15.8334 11.998ZM19.7283 11.4474L18.555 10.2741C18.1896 9.90864 17.5957 9.90864 17.2279 10.2741L16.3768 11.1252C16.2854 11.2166 16.2854 11.3656 16.3768 11.457L18.5454 13.6256C18.6368 13.717 18.7858 13.717 18.8772 13.6256L19.7283 12.7745C20.0938 12.4067 20.0938 11.8128 19.7283 11.4474Z" fill="white"/>
</svg>
