<svg width="30" height="30" viewBox="0 0 30 30" fill="none" xmlns="http://www.w3.org/2000/svg">
<g clip-path="url(#clip0)">
<path d="M20 15L28 15" stroke="white"/>
<path d="M2 15H9" stroke="white"/>
<path d="M5 2L2.11325 7L7.88675 7L5 2ZM5 28L7.88675 23L2.11325 23L5 28ZM4.5 6.5L4.5 23.5L5.5 23.5L5.5 6.5L4.5 6.5Z" fill="white"/>
<path d="M15.5117 16.3184C15.5117 16.0254 15.4004 15.7988 15.1777 15.6387C14.959 15.4746 14.5742 15.334 14.0234 15.2168C13.4766 15.0996 13.041 14.959 12.7168 14.7949C12.3965 14.6309 12.1582 14.4355 12.002 14.209C11.8496 13.9824 11.7734 13.7129 11.7734 13.4004C11.7734 12.8809 11.9922 12.4414 12.4297 12.082C12.8711 11.7227 13.4336 11.543 14.1172 11.543C14.8359 11.543 15.418 11.7285 15.8633 12.0996C16.3125 12.4707 16.5371 12.9453 16.5371 13.5234H15.4473C15.4473 13.2266 15.3203 12.9707 15.0664 12.7559C14.8164 12.541 14.5 12.4336 14.1172 12.4336C13.7227 12.4336 13.4141 12.5195 13.1914 12.6914C12.9688 12.8633 12.8574 13.0879 12.8574 13.3652C12.8574 13.627 12.9609 13.8242 13.168 13.957C13.375 14.0898 13.748 14.2168 14.2871 14.3379C14.8301 14.459 15.2695 14.6035 15.6055 14.7715C15.9414 14.9395 16.1895 15.1426 16.3496 15.3809C16.5137 15.6152 16.5957 15.9023 16.5957 16.2422C16.5957 16.8086 16.3691 17.2637 15.916 17.6074C15.4629 17.9473 14.875 18.1172 14.1523 18.1172C13.6445 18.1172 13.1953 18.0273 12.8047 17.8477C12.4141 17.668 12.1074 17.418 11.8848 17.0977C11.666 16.7734 11.5566 16.4238 11.5566 16.0488H12.6406C12.6602 16.4121 12.8047 16.7012 13.0742 16.916C13.3477 17.127 13.707 17.2324 14.1523 17.2324C14.5625 17.2324 14.8906 17.1504 15.1367 16.9863C15.3867 16.8184 15.5117 16.5957 15.5117 16.3184Z" fill="white"/>
<circle cx="14" cy="15" r="5.5" stroke="white"/>
<path d="M24 15.5V8.5" stroke="white"/>
<path d="M27.5356 4.46448L20.4645 11.5355" stroke="white"/>
<path d="M27.5356 11.5355L20.4645 4.46445" stroke="white"/>
</g>
<defs>
<clipPath id="clip0">
<rect width="30" height="30" fill="white"/>
</clipPath>
</defs>
</svg>
