<svg width="30" height="30" viewBox="0 0 30 30" fill="none" xmlns="http://www.w3.org/2000/svg">
<path d="M9 15L2 15" stroke="white"/>
<path d="M28 15H21" stroke="white"/>
<path d="M13.0576 15.3301V17H12.4951V12.7344H14.0684C14.5352 12.7344 14.9004 12.8535 15.1641 13.0918C15.4297 13.3301 15.5625 13.6455 15.5625 14.0381C15.5625 14.4521 15.4326 14.7715 15.1729 14.9961C14.915 15.2188 14.5449 15.3301 14.0625 15.3301H13.0576ZM13.0576 14.8701H14.0684C14.3691 14.8701 14.5996 14.7998 14.7598 14.6592C14.9199 14.5166 15 14.3115 15 14.0439C15 13.79 14.9199 13.5869 14.7598 13.4346C14.5996 13.2822 14.3799 13.2031 14.1006 13.1973H13.0576V14.8701ZM16.8457 16.54H18.8672V17H16.2803V12.7344H16.8457V16.54Z" fill="white"/>
<circle cx="15" cy="15" r="5.5" stroke="white"/>
</svg>
