<svg width="30" height="30" viewBox="0 0 30 30" fill="none" xmlns="http://www.w3.org/2000/svg">
<path d="M21 15H28" stroke="white"/>
<path d="M2 15H9" stroke="white"/>
<path d="M13.1152 15.6602V19H11.9902V10.4688H15.1367C16.0703 10.4688 16.8008 10.707 17.3281 11.1836C17.8594 11.6602 18.125 12.291 18.125 13.0762C18.125 13.9043 17.8652 14.543 17.3457 14.9922C16.8301 15.4375 16.0898 15.6602 15.125 15.6602H13.1152ZM13.1152 14.7402H15.1367C15.7383 14.7402 16.1992 14.5996 16.5195 14.3184C16.8398 14.0332 17 13.623 17 13.0879C17 12.5801 16.8398 12.1738 16.5195 11.8691C16.1992 11.5645 15.7598 11.4062 15.2012 11.3945H13.1152V14.7402Z" fill="white"/>
</svg>
