<svg width="30" height="30" viewBox="0 0 30 30" fill="none" xmlns="http://www.w3.org/2000/svg">
<path d="M9 15L2 15" stroke="white"/>
<path d="M28 15H21" stroke="white"/>
<path d="M13.0596 15.2744H12.0576V17H11.4922V12.7344H12.9043C13.3848 12.7344 13.7539 12.8438 14.0117 13.0625C14.2715 13.2812 14.4014 13.5996 14.4014 14.0176C14.4014 14.2832 14.3291 14.5146 14.1846 14.7119C14.042 14.9092 13.8428 15.0566 13.5869 15.1543L14.5889 16.9648V17H13.9854L13.0596 15.2744ZM12.0576 14.8145H12.9219C13.2012 14.8145 13.4229 14.7422 13.5869 14.5977C13.7529 14.4531 13.8359 14.2598 13.8359 14.0176C13.8359 13.7539 13.7568 13.5518 13.5986 13.4111C13.4424 13.2705 13.2158 13.1992 12.9189 13.1973H12.0576V14.8145ZM16.4492 15.0986C15.9668 14.96 15.6152 14.79 15.3945 14.5889C15.1758 14.3857 15.0664 14.1357 15.0664 13.8389C15.0664 13.5029 15.2002 13.2256 15.4678 13.0068C15.7373 12.7861 16.0869 12.6758 16.5166 12.6758C16.8096 12.6758 17.0703 12.7324 17.2988 12.8457C17.5293 12.959 17.707 13.1152 17.832 13.3145C17.959 13.5137 18.0225 13.7314 18.0225 13.9678H17.457C17.457 13.71 17.375 13.5078 17.2109 13.3613C17.0469 13.2129 16.8154 13.1387 16.5166 13.1387C16.2393 13.1387 16.0225 13.2002 15.8662 13.3232C15.7119 13.4443 15.6348 13.6133 15.6348 13.8301C15.6348 14.0039 15.708 14.1514 15.8545 14.2725C16.0029 14.3916 16.2539 14.501 16.6074 14.6006C16.9629 14.7002 17.2402 14.8105 17.4395 14.9316C17.6406 15.0508 17.7891 15.1904 17.8848 15.3506C17.9824 15.5107 18.0312 15.6992 18.0312 15.916C18.0312 16.2617 17.8965 16.5391 17.627 16.748C17.3574 16.9551 16.9971 17.0586 16.5459 17.0586C16.2529 17.0586 15.9795 17.0029 15.7256 16.8916C15.4717 16.7783 15.2754 16.624 15.1367 16.4287C15 16.2334 14.9316 16.0117 14.9316 15.7637H15.4971C15.4971 16.0215 15.5918 16.2256 15.7812 16.376C15.9727 16.5244 16.2275 16.5986 16.5459 16.5986C16.8428 16.5986 17.0703 16.5381 17.2285 16.417C17.3867 16.2959 17.4658 16.1309 17.4658 15.9219C17.4658 15.7129 17.3926 15.5518 17.2461 15.4385C17.0996 15.3232 16.834 15.21 16.4492 15.0986Z" fill="white"/>
<circle cx="15" cy="15" r="5.5" stroke="white"/>
</svg>
