<svg width="30" height="30" viewBox="0 0 30 30" fill="none" xmlns="http://www.w3.org/2000/svg">
<path d="M21 15H28" stroke="white"/>
<path d="M2 15H9" stroke="white"/>
<path d="M15.5117 17.3184C15.5117 17.0254 15.4004 16.7988 15.1777 16.6387C14.959 16.4746 14.5742 16.334 14.0234 16.2168C13.4766 16.0996 13.041 15.959 12.7168 15.7949C12.3965 15.6309 12.1582 15.4355 12.002 15.209C11.8496 14.9824 11.7734 14.7129 11.7734 14.4004C11.7734 13.8809 11.9922 13.4414 12.4297 13.082C12.8711 12.7227 13.4336 12.543 14.1172 12.543C14.8359 12.543 15.418 12.7285 15.8633 13.0996C16.3125 13.4707 16.5371 13.9453 16.5371 14.5234H15.4473C15.4473 14.2266 15.3203 13.9707 15.0664 13.7559C14.8164 13.541 14.5 13.4336 14.1172 13.4336C13.7227 13.4336 13.4141 13.5195 13.1914 13.6914C12.9688 13.8633 12.8574 14.0879 12.8574 14.3652C12.8574 14.627 12.9609 14.8242 13.168 14.957C13.375 15.0898 13.748 15.2168 14.2871 15.3379C14.8301 15.459 15.2695 15.6035 15.6055 15.7715C15.9414 15.9395 16.1895 16.1426 16.3496 16.3809C16.5137 16.6152 16.5957 16.9023 16.5957 17.2422C16.5957 17.8086 16.3691 18.2637 15.916 18.6074C15.4629 18.9473 14.875 19.1172 14.1523 19.1172C13.6445 19.1172 13.1953 19.0273 12.8047 18.8477C12.4141 18.668 12.1074 18.418 11.8848 18.0977C11.666 17.7734 11.5566 17.4238 11.5566 17.0488H12.6406C12.6602 17.4121 12.8047 17.7012 13.0742 17.916C13.3477 18.127 13.707 18.2324 14.1523 18.2324C14.5625 18.2324 14.8906 18.1504 15.1367 17.9863C15.3867 17.8184 15.5117 17.5957 15.5117 17.3184Z" fill="white"/>
</svg>
