<svg width="30" height="30" viewBox="0 0 30 30" fill="none" xmlns="http://www.w3.org/2000/svg">
<path d="M9 15L2 15" stroke="white"/>
<path d="M28 15H21" stroke="white"/>
<path d="M16.5117 16.3184C16.5117 16.0254 16.4004 15.7988 16.1777 15.6387C15.959 15.4746 15.5742 15.334 15.0234 15.2168C14.4766 15.0996 14.041 14.959 13.7168 14.7949C13.3965 14.6309 13.1582 14.4355 13.002 14.209C12.8496 13.9824 12.7734 13.7129 12.7734 13.4004C12.7734 12.8809 12.9922 12.4414 13.4297 12.082C13.8711 11.7227 14.4336 11.543 15.1172 11.543C15.8359 11.543 16.418 11.7285 16.8633 12.0996C17.3125 12.4707 17.5371 12.9453 17.5371 13.5234H16.4473C16.4473 13.2266 16.3203 12.9707 16.0664 12.7559C15.8164 12.541 15.5 12.4336 15.1172 12.4336C14.7227 12.4336 14.4141 12.5195 14.1914 12.6914C13.9688 12.8633 13.8574 13.0879 13.8574 13.3652C13.8574 13.627 13.9609 13.8242 14.168 13.957C14.375 14.0898 14.748 14.2168 15.2871 14.3379C15.8301 14.459 16.2695 14.6035 16.6055 14.7715C16.9414 14.9395 17.1895 15.1426 17.3496 15.3809C17.5137 15.6152 17.5957 15.9023 17.5957 16.2422C17.5957 16.8086 17.3691 17.2637 16.916 17.6074C16.4629 17.9473 15.875 18.1172 15.1523 18.1172C14.6445 18.1172 14.1953 18.0273 13.8047 17.8477C13.4141 17.668 13.1074 17.418 12.8848 17.0977C12.666 16.7734 12.5566 16.4238 12.5566 16.0488H13.6406C13.6602 16.4121 13.8047 16.7012 14.0742 16.916C14.3477 17.127 14.707 17.2324 15.1523 17.2324C15.5625 17.2324 15.8906 17.1504 16.1367 16.9863C16.3867 16.8184 16.5117 16.5957 16.5117 16.3184Z" fill="white"/>
<circle cx="15" cy="15" r="5.5" stroke="white"/>
</svg>
