<svg width="30" height="30" viewBox="0 0 30 30" fill="none" xmlns="http://www.w3.org/2000/svg">
<path d="M16 15L13 15" stroke="white"/>
<path d="M28 15H16" stroke="white"/>
<path d="M9.51172 16.3184C9.51172 16.0254 9.40039 15.7988 9.17773 15.6387C8.95898 15.4746 8.57422 15.334 8.02344 15.2168C7.47656 15.0996 7.04102 14.959 6.7168 14.7949C6.39648 14.6309 6.1582 14.4355 6.00195 14.209C5.84961 13.9824 5.77344 13.7129 5.77344 13.4004C5.77344 12.8809 5.99219 12.4414 6.42969 12.082C6.87109 11.7227 7.43359 11.543 8.11719 11.543C8.83594 11.543 9.41797 11.7285 9.86328 12.0996C10.3125 12.4707 10.5371 12.9453 10.5371 13.5234H9.44727C9.44727 13.2266 9.32031 12.9707 9.06641 12.7559C8.81641 12.541 8.5 12.4336 8.11719 12.4336C7.72266 12.4336 7.41406 12.5195 7.19141 12.6914C6.96875 12.8633 6.85742 13.0879 6.85742 13.3652C6.85742 13.627 6.96094 13.8242 7.16797 13.957C7.375 14.0898 7.74805 14.2168 8.28711 14.3379C8.83008 14.459 9.26953 14.6035 9.60547 14.7715C9.94141 14.9395 10.1895 15.1426 10.3496 15.3809C10.5137 15.6152 10.5957 15.9023 10.5957 16.2422C10.5957 16.8086 10.3691 17.2637 9.91602 17.6074C9.46289 17.9473 8.875 18.1172 8.15234 18.1172C7.64453 18.1172 7.19531 18.0273 6.80469 17.8477C6.41406 17.668 6.10742 17.418 5.88477 17.0977C5.66602 16.7734 5.55664 16.4238 5.55664 16.0488H6.64062C6.66016 16.4121 6.80469 16.7012 7.07422 16.916C7.34766 17.127 7.70703 17.2324 8.15234 17.2324C8.5625 17.2324 8.89062 17.1504 9.13672 16.9863C9.38672 16.8184 9.51172 16.5957 9.51172 16.3184Z" fill="white"/>
<circle cx="8" cy="15" r="5.5" stroke="white"/>
</svg>
