<svg width="30" height="30" viewBox="0 0 30 30" fill="none" xmlns="http://www.w3.org/2000/svg">
<path d="M25 15L28 15" stroke="white"/>
<path d="M2 15H14" stroke="white"/>
<path d="M10 2L7.11325 7L12.8868 7L10 2ZM10 28L12.8868 23L7.11325 23L10 28ZM9.5 6.5L9.5 23.5L10.5 23.5L10.5 6.5L9.5 6.5Z" fill="white"/>
<path d="M20.5117 16.3184C20.5117 16.0254 20.4004 15.7988 20.1777 15.6387C19.959 15.4746 19.5742 15.334 19.0234 15.2168C18.4766 15.0996 18.041 14.959 17.7168 14.7949C17.3965 14.6309 17.1582 14.4355 17.002 14.209C16.8496 13.9824 16.7734 13.7129 16.7734 13.4004C16.7734 12.8809 16.9922 12.4414 17.4297 12.082C17.8711 11.7227 18.4336 11.543 19.1172 11.543C19.8359 11.543 20.418 11.7285 20.8633 12.0996C21.3125 12.4707 21.5371 12.9453 21.5371 13.5234H20.4473C20.4473 13.2266 20.3203 12.9707 20.0664 12.7559C19.8164 12.541 19.5 12.4336 19.1172 12.4336C18.7227 12.4336 18.4141 12.5195 18.1914 12.6914C17.9688 12.8633 17.8574 13.0879 17.8574 13.3652C17.8574 13.627 17.9609 13.8242 18.168 13.957C18.375 14.0898 18.748 14.2168 19.2871 14.3379C19.8301 14.459 20.2695 14.6035 20.6055 14.7715C20.9414 14.9395 21.1895 15.1426 21.3496 15.3809C21.5137 15.6152 21.5957 15.9023 21.5957 16.2422C21.5957 16.8086 21.3691 17.2637 20.916 17.6074C20.4629 17.9473 19.875 18.1172 19.1523 18.1172C18.6445 18.1172 18.1953 18.0273 17.8047 17.8477C17.4141 17.668 17.1074 17.418 16.8848 17.0977C16.666 16.7734 16.5566 16.4238 16.5566 16.0488H17.6406C17.6602 16.4121 17.8047 16.7012 18.0742 16.916C18.3477 17.127 18.707 17.2324 19.1523 17.2324C19.5625 17.2324 19.8906 17.1504 20.1367 16.9863C20.3867 16.8184 20.5117 16.5957 20.5117 16.3184Z" fill="white"/>
<circle cx="19" cy="15" r="5.5" stroke="white"/>
</svg>
